<svg width="22" height="18" viewBox="0 0 22 18" fill="none" xmlns="http://www.w3.org/2000/svg">
<path d="M18.4628 2.57573C17.7755 1.82597 16.5344 1.77977 15.7071 2.60711L7.60706 10.7071C7.39758 10.9166 7.39758 11.1834 7.60706 11.3929C7.81653 11.6024 8.08337 11.6024 8.29284 11.3929L14.9928 4.6929C15.3834 4.30237 16.0165 4.30237 16.4071 4.6929C16.7976 5.08342 16.7976 5.71659 16.4071 6.10711L9.70706 12.8071C8.71653 13.7976 7.18337 13.7976 6.19284 12.8071C5.20232 11.8166 5.20232 10.2834 6.19284 9.2929L14.2928 1.1929C15.8604 -0.374632 18.4077 -0.425638 19.9223 1.20821C21.4746 2.77662 21.5203 5.31157 19.8928 6.82133L10.4071 16.3071C8.21653 18.4976 4.78337 18.4976 2.59284 16.3071C0.40232 14.1166 0.40232 10.6834 2.59284 8.4929L10.6928 0.3929C11.0834 0.00237539 11.7165 0.00237539 12.1071 0.3929C12.4976 0.783424 12.4976 1.41659 12.1071 1.80711L4.00706 9.90711C2.59758 11.3166 2.59758 13.4834 4.00706 14.8929C5.41653 16.3024 7.58337 16.3024 8.99284 14.8929L18.4928 5.3929C18.5031 5.38266 18.5135 5.37264 18.5242 5.36285C19.274 4.67557 19.3202 3.43446 18.4928 2.60711C18.4826 2.59687 18.4726 2.58641 18.4628 2.57573Z" fill="#ED6165"/>
</svg>
