<svg width="26" height="18" viewBox="0 0 26 18" fill="none" xmlns="http://www.w3.org/2000/svg">
<path d="M11.0102 7.70946C11.4759 6.98501 11.7151 6.13819 11.6972 5.27717C11.6761 4.11761 11.1993 3.01298 10.37 2.20223C9.54075 1.39149 8.42563 0.939794 7.26589 0.944866H0.569387C0.418376 0.944866 0.273547 1.00486 0.166766 1.11164C0.0599848 1.21842 0 1.36325 0 1.51426V16.2503C0.00162984 16.4002 0.0623329 16.5435 0.168938 16.6489C0.275543 16.7543 0.419442 16.8135 0.569387 16.8135H8.05189C9.12393 16.8281 10.1725 16.499 11.0439 15.8745C11.9154 15.25 12.564 14.3628 12.8947 13.343C13.2254 12.3231 13.2209 11.2242 12.8818 10.2071C12.5427 9.19 11.8868 8.30822 11.0102 7.6909V7.70946ZM2.96453 3.9094H7.34634C7.54324 3.89648 7.7407 3.92412 7.9265 3.99058C8.11229 4.05705 8.28246 4.16094 8.42648 4.29582C8.57051 4.43071 8.68532 4.59372 8.76381 4.77477C8.8423 4.95581 8.8828 5.15103 8.8828 5.34836C8.8828 5.54568 8.8423 5.7409 8.76381 5.92195C8.68532 6.10299 8.57051 6.26599 8.42648 6.40087C8.28246 6.53576 8.11229 6.63964 7.9265 6.70611C7.7407 6.77258 7.54324 6.80021 7.34634 6.78729H2.96453V3.9094ZM8.13855 13.8985H2.96453V9.72707H8.13855C8.69171 9.72707 9.2222 9.94681 9.61335 10.338C10.0045 10.7291 10.2242 11.2596 10.2242 11.8128C10.2242 12.3659 10.0045 12.8964 9.61335 13.2876C9.2222 13.6787 8.69171 13.8985 8.13855 13.8985Z" fill="#0067FF"/>
<path d="M26.0001 10.7855C25.9625 9.60185 25.577 8.45556 24.8918 7.48968C24.2067 6.52379 23.2522 5.7811 22.1476 5.35431C21.043 4.92753 19.8371 4.83556 18.6805 5.08987C17.524 5.34418 16.4679 5.93351 15.6442 6.78431C14.8205 7.63511 14.2656 8.70968 14.0489 9.87388C13.8321 11.0381 13.963 12.2403 14.4253 13.3306C14.8876 14.4208 15.6608 15.3507 16.6483 16.0043C17.6359 16.6578 18.794 17.006 19.9782 17.0054C20.9779 17.0006 21.9604 16.7455 22.8361 16.2633C23.7118 15.7811 24.4527 15.0873 24.9913 14.2451C25.1292 14.0272 25.2552 13.802 25.3689 13.5705C25.3878 13.5318 25.3966 13.4888 25.3943 13.4457C25.392 13.4026 25.3788 13.3608 25.3559 13.3243C25.3329 13.2877 25.3011 13.2576 25.2633 13.2368C25.2255 13.216 25.183 13.2052 25.1399 13.2053H22.1753C22.1106 13.2087 22.0491 13.235 22.0021 13.2796C21.7356 13.5422 21.4193 13.7487 21.0717 13.8869C20.724 14.0251 20.3522 14.0922 19.9782 14.0842C19.2575 14.0665 18.5648 13.8017 18.016 13.3341C17.4673 12.8665 17.096 12.2246 16.9642 11.5158H25.4122C25.5709 11.5078 25.7205 11.4391 25.83 11.3239C25.9394 11.2087 26.0003 11.0558 26.0001 10.8969V10.7855ZM19.9782 7.50528C20.4995 7.51178 21.0104 7.65173 21.4622 7.91175C21.914 8.17178 22.2916 8.54321 22.5591 8.99063H17.3974C17.6649 8.54321 18.0425 8.17178 18.4943 7.91175C18.9461 7.65173 19.457 7.51178 19.9782 7.50528Z" fill="#0067FF"/>
<path d="M22.4848 3.8721H17.1437C17.0844 3.8721 17.0256 3.86041 16.9708 3.83771C16.916 3.815 16.8662 3.78173 16.8242 3.73978C16.7823 3.69782 16.749 3.64801 16.7263 3.59319C16.7036 3.53838 16.6919 3.47963 16.6919 3.4203V2.07729C16.6919 2.01796 16.7036 1.95921 16.7263 1.9044C16.749 1.84958 16.7823 1.79977 16.8242 1.75781C16.8662 1.71586 16.916 1.68259 16.9708 1.65988C17.0256 1.63718 17.0844 1.62549 17.1437 1.62549H22.4848C22.5441 1.62549 22.6029 1.63718 22.6577 1.65988C22.7125 1.68259 22.7623 1.71586 22.8043 1.75781C22.8462 1.79977 22.8795 1.84958 22.9022 1.9044C22.9249 1.95921 22.9366 2.01796 22.9366 2.07729V3.4203C22.9366 3.47963 22.9249 3.53838 22.9022 3.59319C22.8795 3.64801 22.8462 3.69782 22.8043 3.73978C22.7623 3.78173 22.7125 3.815 22.6577 3.83771C22.6029 3.86041 22.5441 3.8721 22.4848 3.8721Z" fill="#0067FF"/>
</svg>
