<svg width="25" height="25" viewBox="0 0 25 25" fill="none" xmlns="http://www.w3.org/2000/svg">
<path d="M12.488 0C10.0163 0.00236758 7.60071 0.737487 5.54667 2.11244C3.49263 3.4874 1.89234 5.44046 0.948081 7.72474C0.00382192 10.009 -0.242016 12.522 0.24165 14.946C0.725317 17.3699 1.91676 19.5961 3.6654 21.3431C5.41403 23.09 7.64134 24.2793 10.0658 24.7607C12.4902 25.242 15.0029 24.9938 17.2863 24.0473C19.5697 23.1009 21.5212 21.4987 22.8942 19.4434C24.2672 17.388 25 14.9718 25 12.5C24.9952 9.18418 23.6751 6.0057 21.3294 3.66218C18.9836 1.31866 15.8039 0.00158235 12.488 0ZM20.7256 5.91475C22.1997 7.73957 23.0215 10.0048 23.0604 12.3503C21.4483 12.0406 19.8108 11.8823 18.1693 11.8774C17.3689 11.8765 16.5692 11.9245 15.7747 12.0211C15.7088 11.8535 15.637 11.6798 15.5651 11.5122C15.3496 11.0153 15.1221 10.5184 14.8887 10.0335C17.1552 9.17403 19.1687 7.75753 20.7435 5.91475H20.7256ZM12.488 1.95763C15.052 1.95725 17.5287 2.88918 19.4564 4.57974C19.1571 4.98084 17.5587 6.97438 13.9907 8.32735C12.8251 6.21356 11.5232 4.17782 10.0934 2.233C10.8783 2.04891 11.6819 1.9565 12.488 1.95763ZM7.95021 2.98133C9.34094 4.92173 10.6317 6.93184 11.8175 9.00383C8.68799 9.8146 5.47166 10.2428 2.23899 10.279H2.13721C2.48312 8.70138 3.18509 7.22373 4.18946 5.95893C5.19383 4.69413 6.47403 3.67565 7.93225 2.98133H7.95021ZM1.91571 12.5C1.91571 12.4102 1.91571 12.3264 1.91571 12.2366H2.19109C5.76252 12.2152 9.31471 11.7117 12.7514 10.7399C13.0388 11.2987 13.3082 11.8614 13.5596 12.4282L13.2064 12.5299C7.92027 14.2361 5.01677 18.756 4.57376 19.4923C2.85746 17.5681 1.91107 15.0785 1.91571 12.5ZM12.488 23.0723C10.1554 23.0766 7.88747 22.3059 6.04048 20.8812C6.33981 20.2826 8.5309 16.3434 14.3259 14.3259C15.3164 16.8944 16.064 19.5501 16.5589 22.2581C15.267 22.8034 13.8783 23.0824 12.4761 23.0783L12.488 23.0723ZM18.4746 21.2165C18.0081 18.6919 17.3313 16.2108 16.4512 13.7991C17.1544 13.6912 17.8649 13.6372 18.5764 13.6374C20.0441 13.6314 21.5054 13.8329 22.9167 14.2361C22.6839 15.6386 22.1706 16.9797 21.4073 18.1792C20.644 19.3786 19.6466 20.4116 18.4746 21.2165Z" fill="#FF679A"/>
</svg>
