<svg width="22" height="22" viewBox="0 0 22 22" fill="none" xmlns="http://www.w3.org/2000/svg">
<path d="M2.94891 2.32886e-05C3.45389 0.0032546 3.9466 0.156023 4.36482 0.439034C4.78305 0.722046 5.10806 1.12261 5.29882 1.59017C5.48958 2.05774 5.53753 2.57134 5.43664 3.06615C5.33575 3.56095 5.09054 4.01479 4.73195 4.37034C4.37335 4.7259 3.91746 4.96724 3.42182 5.06391C2.92617 5.16059 2.413 5.10825 1.94707 4.91352C1.48114 4.71879 1.08334 4.3904 0.803897 3.96978C0.524455 3.54916 0.375892 3.05516 0.376959 2.55018C0.378387 2.21385 0.446051 1.88113 0.576077 1.57095C0.706103 1.26078 0.895956 0.979255 1.13478 0.742451C1.37361 0.505646 1.65674 0.318175 1.96801 0.190793C2.27928 0.0634116 2.61259 -0.00141092 2.94891 2.32886e-05Z" fill="#0084B3"/>
<path d="M4.43176 21.2459H1.44024C1.25381 21.2459 1.07502 21.1718 0.943191 21.04C0.811366 20.9082 0.737305 20.7294 0.737305 20.543V7.76493C0.737305 7.5785 0.811366 7.39971 0.943191 7.26788C1.07502 7.13606 1.25381 7.06201 1.44024 7.06201H4.43176C4.61819 7.06201 4.79699 7.13606 4.92881 7.26788C5.06064 7.39971 5.1347 7.5785 5.1347 7.76493V20.543C5.1347 20.7294 5.06064 20.9082 4.92881 21.04C4.79699 21.1718 4.61819 21.2459 4.43176 21.2459Z" fill="#0084B3"/>
<path d="M21.6714 11.5523C21.6721 10.9152 21.5472 10.2843 21.3037 9.6956C21.0602 9.10688 20.703 8.57195 20.2526 8.12148C19.8021 7.671 19.2672 7.31381 18.6785 7.07034C18.0897 6.82688 17.4588 6.70192 16.8217 6.70264H16.0534C15.3586 6.70184 14.6738 6.86949 14.0579 7.19121C13.442 7.51292 12.9133 7.97911 12.517 8.54988C12.4306 8.66987 12.3523 8.79548 12.2827 8.92586H12.2391V7.35653C12.2391 7.27943 12.2088 7.20539 12.1548 7.15036C12.1008 7.09534 12.0274 7.06372 11.9503 7.0623H8.21222C8.13418 7.0623 8.05934 7.09329 8.00416 7.14847C7.94898 7.20365 7.91797 7.27849 7.91797 7.35653V20.9519C7.91797 21.03 7.94898 21.1048 8.00416 21.16C8.05934 21.2152 8.13418 21.2462 8.21222 21.2462H12.0266C12.1032 21.2462 12.1766 21.2158 12.2308 21.1616C12.2849 21.1074 12.3154 21.034 12.3154 20.9574V13.0999C12.3124 12.4459 12.5667 11.8171 13.0235 11.3491C13.4802 10.8811 14.1027 10.6116 14.7565 10.5987C15.0832 10.5951 15.4074 10.6563 15.7104 10.7787C16.0133 10.901 16.289 11.0822 16.5215 11.3117C16.7541 11.5412 16.9389 11.8145 17.0652 12.1158C17.1916 12.4171 17.257 12.7404 17.2577 13.0672V20.9574C17.2577 21.034 17.2881 21.1074 17.3422 21.1616C17.3964 21.2158 17.4699 21.2462 17.5465 21.2462H21.3608C21.3989 21.2469 21.4368 21.24 21.4722 21.2257C21.5076 21.2115 21.5397 21.1902 21.5667 21.1633C21.5936 21.1363 21.6149 21.1041 21.6291 21.0688C21.6434 21.0334 21.6503 20.9955 21.6496 20.9574V11.5523H21.6714Z" fill="#0084B3"/>
</svg>
