<svg width="27" height="22" viewBox="0 0 27 22" fill="none" xmlns="http://www.w3.org/2000/svg">
<path d="M0.00630868 19.543C2.39571 21.0606 5.14679 21.9066 7.97263 21.9927C10.7985 22.0788 13.5955 21.4018 16.0721 20.0324C18.5487 18.663 20.6141 16.6513 22.0529 14.2071C23.4917 11.7629 24.2512 8.97571 24.2521 6.13631C24.2521 5.91477 24.2521 5.69955 24.2521 5.50333C24.5672 5.25646 26.521 3.68033 27 2.67388C25.9878 3.07748 24.9291 3.35181 23.8487 3.49044C23.9874 3.39549 25.9916 2.02824 26.2626 0.401462C25.3952 0.844873 24.4956 1.22153 23.5714 1.52818L22.7584 1.78137C21.9266 0.88019 20.8212 0.280924 19.6146 0.0770879C18.408 -0.126748 17.1682 0.076322 16.0886 0.654595C15.009 1.23287 14.1505 2.15382 13.6468 3.27372C13.1432 4.39362 13.0229 5.64945 13.3046 6.84525C12.8761 6.84525 6.37186 6.45913 1.92228 1.06609C1.92228 1.06609 -0.724792 4.69944 3.5042 8.43406C2.66287 8.37738 1.84471 8.13303 1.10925 7.71878C1.10925 7.71878 0.699575 12.118 5.48949 13.2448C4.69502 13.4797 3.85517 13.5145 3.04413 13.346C3.3789 14.4507 4.05169 15.4214 4.96697 16.1202C5.88225 16.819 6.99349 17.2104 8.14287 17.2389C7.01654 18.1664 5.71287 18.8522 4.31235 19.2539C2.91182 19.6556 1.44416 19.7648 0 19.5746L0.00630868 19.543Z" fill="#00ACF3"/>
</svg>
