<svg width="220" height="76" viewBox="0 0 220 76" fill="none" xmlns="http://www.w3.org/2000/svg">
<path d="M21.926 11.266C21.926 12.7483 21.6399 14.1516 21.0679 15.4759C20.4958 16.7803 19.7166 17.9168 18.7303 18.8853C17.7637 19.834 16.6097 20.5851 15.2683 21.1385C13.9269 21.6919 12.4869 21.9686 10.9482 21.9686C9.42925 21.9686 7.99908 21.6919 6.65768 21.1385C5.31628 20.5851 4.15242 19.834 3.1661 18.8853C2.1995 17.9168 1.43017 16.7803 0.858102 15.4759C0.286034 14.1516 0 12.7483 0 11.266C0 9.78359 0.286034 8.39017 0.858102 7.08569C1.43017 5.76145 2.1995 4.62497 3.1661 3.67626C4.15242 2.70778 5.31628 1.94684 6.65768 1.39342C7.99908 0.840005 9.42925 0.563298 10.9482 0.563298C12.4869 0.563298 13.9269 0.840005 15.2683 1.39342C16.6097 1.94684 17.7637 2.70778 18.7303 3.67626C19.7166 4.62497 20.4958 5.76145 21.0679 7.08569C21.6399 8.39017 21.926 9.78359 21.926 11.266ZM17.5171 11.266C17.5171 10.2975 17.3494 9.40806 17.0141 8.5977C16.6787 7.76758 16.2152 7.05604 15.6234 6.4631C15.0513 5.85039 14.3609 5.37603 13.5521 5.04003C12.7433 4.68427 11.8753 4.50638 10.9482 4.50638C10.021 4.50638 9.15308 4.68427 8.3443 5.04003C7.55524 5.37603 6.86481 5.85039 6.27302 6.4631C5.70095 7.05604 5.24724 7.76758 4.91189 8.5977C4.57654 9.40806 4.40887 10.2975 4.40887 11.266C4.40887 12.2147 4.57654 13.1041 4.91189 13.9342C5.24724 14.7643 5.70095 15.4857 6.27302 16.0985C6.86481 16.6914 7.55524 17.1658 8.3443 17.5215C9.15308 17.8575 10.021 18.0255 10.9482 18.0255C11.8753 18.0255 12.7433 17.8575 13.5521 17.5215C14.3609 17.1658 15.0513 16.6914 15.6234 16.0985C16.2152 15.4857 16.6787 14.7643 17.0141 13.9342C17.3494 13.1041 17.5171 12.2147 17.5171 11.266Z" fill="#281D4C"/>
<path d="M24.6031 27.8388V6.19627H28.5978V7.47111C29.2093 6.97698 29.8898 6.61134 30.6394 6.37416C31.3891 6.11722 32.1683 5.98874 32.977 5.98874C34.062 5.98874 35.0779 6.19627 36.0248 6.61134C36.9914 7.0264 37.8298 7.58969 38.5399 8.30123C39.2501 9.01276 39.8024 9.85277 40.1969 10.8212C40.6112 11.7897 40.8183 12.8274 40.8183 13.9342C40.8183 15.041 40.6112 16.0787 40.1969 17.0472C39.7827 18.0156 39.2205 18.8556 38.5103 19.5672C37.8002 20.2787 36.9519 20.842 35.9656 21.2571C34.999 21.6524 33.9634 21.85 32.8587 21.85C32.1091 21.85 31.3693 21.7512 30.6394 21.5535C29.9293 21.3361 29.2685 21.0298 28.6569 20.6345V27.8388H24.6031ZM32.3261 9.45747C31.5962 9.45747 30.9156 9.58594 30.2844 9.84289C29.6531 10.0801 29.1106 10.4358 28.6569 10.9102V16.9879C29.0909 17.4227 29.6235 17.7686 30.2548 18.0255C30.9058 18.2825 31.5962 18.4109 32.3261 18.4109C33.5886 18.4109 34.6538 17.986 35.5217 17.1361C36.3897 16.2665 36.8237 15.1992 36.8237 13.9342C36.8237 12.6693 36.3799 11.6118 35.4922 10.762C34.6242 9.8923 33.5688 9.45747 32.3261 9.45747Z" fill="#281D4C"/>
<path d="M57.233 19.7154C56.2861 20.4862 55.3096 21.0495 54.3036 21.4053C53.3173 21.7611 52.2126 21.939 50.9895 21.939C49.8257 21.939 48.7309 21.7314 47.7051 21.3164C46.699 20.9013 45.8212 20.338 45.0716 19.6265C44.3417 18.9149 43.7598 18.0749 43.3258 17.1065C42.9115 16.1182 42.7044 15.0608 42.7044 13.9342C42.7044 12.8274 42.9017 11.7897 43.2962 10.8212C43.7105 9.833 44.2727 8.98312 44.9828 8.27158C45.693 7.54028 46.5314 6.9671 47.498 6.55204C48.4843 6.13698 49.5298 5.92945 50.6345 5.92945C51.7194 5.92945 52.7255 6.14686 53.6526 6.58169C54.5995 6.99675 55.4083 7.56993 56.079 8.30123C56.7694 9.03253 57.302 9.91206 57.6768 10.9398C58.0713 11.9478 58.2686 13.0448 58.2686 14.2307V15.298H46.7878C47.064 16.2665 47.5966 17.0472 48.3856 17.6401C49.1747 18.2331 50.1018 18.5295 51.1671 18.5295C51.8378 18.5295 52.469 18.4208 53.0608 18.2034C53.6526 17.986 54.1556 17.6796 54.5699 17.2843L57.233 19.7154ZM50.5457 9.27959C49.6186 9.27959 48.8196 9.56618 48.1489 10.1394C47.4782 10.6928 47.0147 11.4438 46.7582 12.3925H54.3036C54.0471 11.4834 53.5737 10.7422 52.8833 10.169C52.2126 9.57606 51.4334 9.27959 50.5457 9.27959Z" fill="#281D4C"/>
<path d="M60.7523 21.6425V6.19627H64.8061V7.41181C65.3979 6.91769 66.0489 6.54216 66.759 6.28522C67.4889 6.02827 68.2779 5.8998 69.1262 5.8998C70.9016 5.8998 72.3613 6.47298 73.5055 7.61934C74.6496 8.7657 75.2217 10.2382 75.2217 12.0368V21.6425H71.1679V12.6297C71.1679 11.6613 70.872 10.8805 70.2802 10.2876C69.7081 9.69465 68.9388 9.39818 67.9722 9.39818C67.3015 9.39818 66.69 9.53653 66.1376 9.81324C65.605 10.0702 65.1612 10.4457 64.8061 10.9398V21.6425H60.7523Z" fill="#281D4C"/>
<path d="M99.1234 11.2956C99.1234 12.8175 98.8571 14.2406 98.3245 15.5648C97.8116 16.8693 97.0916 17.9959 96.1645 18.9446C95.257 19.8735 94.1622 20.6147 92.88 21.1681C91.5978 21.7018 90.2169 21.9686 88.7375 21.9686C87.1988 21.9686 85.7588 21.6919 84.4174 21.1385C83.076 20.5851 81.9121 19.834 80.9258 18.8853C79.9592 17.9168 79.1898 16.7803 78.6178 15.4759C78.0457 14.1714 77.7597 12.7681 77.7597 11.266C77.7597 9.76383 78.0358 8.36052 78.5882 7.05605C79.1602 5.75157 79.9296 4.62497 80.8962 3.67626C81.8825 2.70778 83.0464 1.94684 84.3878 1.39342C85.7292 0.840005 87.1593 0.563298 88.6783 0.563298C90.3945 0.563298 92.012 0.909182 93.531 1.60095C95.0499 2.29272 96.3026 3.24143 97.2889 4.44709L94.3003 7.20428C93.5704 6.33463 92.7222 5.67251 91.7556 5.21792C90.8087 4.74356 89.783 4.50638 88.6783 4.50638C87.7511 4.50638 86.8832 4.68427 86.0744 5.04003C85.2853 5.37603 84.5949 5.85039 84.0031 6.4631C83.431 7.05604 82.9773 7.76758 82.642 8.5977C82.3263 9.40806 82.1685 10.2975 82.1685 11.266C82.1685 12.2344 82.3362 13.1337 82.6716 13.9639C83.0069 14.794 83.4705 15.5154 84.0623 16.1281C84.6541 16.721 85.3544 17.1954 86.1631 17.5512C86.9917 17.8872 87.8695 18.0552 88.7966 18.0552C90.2564 18.0552 91.509 17.65 92.5545 16.8396C93.6198 16.0293 94.2806 14.9916 94.537 13.7267H88.412V9.99112H99.1234V11.2956Z" fill="#281D4C"/>
<path d="M115.603 19.7154C114.656 20.4862 113.68 21.0495 112.674 21.4053C111.688 21.7611 110.583 21.939 109.36 21.939C108.196 21.939 107.101 21.7314 106.075 21.3164C105.069 20.9013 104.192 20.338 103.442 19.6265C102.712 18.9149 102.13 18.0749 101.696 17.1065C101.282 16.1182 101.075 15.0608 101.075 13.9342C101.075 12.8274 101.272 11.7897 101.667 10.8212C102.081 9.833 102.643 8.98312 103.353 8.27158C104.063 7.54028 104.902 6.9671 105.868 6.55204C106.855 6.13698 107.9 5.92945 109.005 5.92945C110.09 5.92945 111.096 6.14686 112.023 6.58169C112.97 6.99675 113.779 7.56993 114.449 8.30123C115.14 9.03253 115.672 9.91206 116.047 10.9398C116.442 11.9478 116.639 13.0448 116.639 14.2307V15.298H105.158C105.434 16.2665 105.967 17.0472 106.756 17.6401C107.545 18.2331 108.472 18.5295 109.537 18.5295C110.208 18.5295 110.839 18.4208 111.431 18.2034C112.023 17.986 112.526 17.6796 112.94 17.2843L115.603 19.7154ZM108.916 9.27959C107.989 9.27959 107.19 9.56618 106.519 10.1394C105.849 10.6928 105.385 11.4438 105.129 12.3925H112.674C112.417 11.4834 111.944 10.7422 111.254 10.169C110.583 9.57606 109.804 9.27959 108.916 9.27959Z" fill="#281D4C"/>
<path d="M133.057 19.7154C132.11 20.4862 131.133 21.0495 130.127 21.4053C129.141 21.7611 128.036 21.939 126.813 21.939C125.649 21.939 124.554 21.7314 123.529 21.3164C122.523 20.9013 121.645 20.338 120.895 19.6265C120.165 18.9149 119.583 18.0749 119.149 17.1065C118.735 16.1182 118.528 15.0608 118.528 13.9342C118.528 12.8274 118.725 11.7897 119.12 10.8212C119.534 9.833 120.096 8.98312 120.806 8.27158C121.517 7.54028 122.355 6.9671 123.322 6.55204C124.308 6.13698 125.353 5.92945 126.458 5.92945C127.543 5.92945 128.549 6.14686 129.476 6.58169C130.423 6.99675 131.232 7.56993 131.903 8.30123C132.593 9.03253 133.126 9.91206 133.5 10.9398C133.895 11.9478 134.092 13.0448 134.092 14.2307V15.298H122.611C122.888 16.2665 123.42 17.0472 124.209 17.6401C124.998 18.2331 125.925 18.5295 126.991 18.5295C127.661 18.5295 128.293 18.4208 128.884 18.2034C129.476 17.986 129.979 17.6796 130.394 17.2843L133.057 19.7154ZM126.369 9.27959C125.442 9.27959 124.643 9.56618 123.973 10.1394C123.302 10.6928 122.838 11.4438 122.582 12.3925H130.127C129.871 11.4834 129.397 10.7422 128.707 10.169C128.036 9.57606 127.257 9.27959 126.369 9.27959Z" fill="#281D4C"/>
<path d="M136.576 21.6425V0.889417L140.63 0V12.7187L147.287 6.19627H151.874L144.654 13.282L152.318 21.6425H147.139L140.63 14.5864V21.6425H136.576Z" fill="#281D4C"/>
<path d="M152.034 19.8044L154.046 17.1065C154.953 17.6994 155.811 18.1441 156.62 18.4406C157.429 18.7173 158.238 18.8556 159.047 18.8556C159.954 18.8556 160.674 18.7074 161.207 18.4109C161.759 18.1145 162.035 17.7192 162.035 17.225C162.035 16.8298 161.877 16.5135 161.562 16.2763C161.266 16.0392 160.782 15.8712 160.112 15.7723L157.153 15.3276C155.634 15.0904 154.47 14.5963 153.661 13.8453C152.872 13.0942 152.478 12.0961 152.478 10.8509C152.478 9.36853 153.06 8.18264 154.223 7.29322C155.387 6.4038 156.946 5.9591 158.899 5.9591C160.023 5.9591 161.118 6.1271 162.183 6.4631C163.248 6.77934 164.264 7.25369 165.231 7.88617L163.278 10.4951C162.43 10.001 161.621 9.63536 160.852 9.39818C160.082 9.14123 159.303 9.01276 158.514 9.01276C157.784 9.01276 157.192 9.15112 156.739 9.42782C156.305 9.70453 156.088 10.0702 156.088 10.5248C156.088 10.9398 156.245 11.266 156.561 11.5031C156.896 11.7205 157.439 11.8787 158.188 11.9775L161.147 12.4222C162.647 12.6396 163.801 13.1337 164.609 13.9046C165.438 14.6754 165.852 15.6537 165.852 16.8396C165.852 17.5709 165.675 18.2528 165.32 18.8853C164.984 19.498 164.521 20.0317 163.929 20.4862C163.337 20.9408 162.627 21.2966 161.798 21.5535C160.97 21.8105 160.072 21.939 159.106 21.939C157.705 21.939 156.393 21.7611 155.17 21.4053C153.947 21.0298 152.902 20.4961 152.034 19.8044Z" fill="#281D4C"/>
<path d="M168.137 21.6425V0.889417H172.427V17.8476H183.76V21.6425H168.137Z" fill="#281D4C"/>
<path d="M191.333 21.9093C189.676 21.9093 188.325 21.4745 187.279 20.6048C186.234 19.7154 185.711 18.5691 185.711 17.1658C185.711 15.7032 186.273 14.5568 187.398 13.7267C188.522 12.8966 190.071 12.4815 192.043 12.4815C192.674 12.4815 193.306 12.5309 193.937 12.6297C194.568 12.7285 195.19 12.8768 195.801 13.0744V11.9775C195.801 11.0881 195.525 10.4161 194.973 9.96147C194.42 9.50688 193.611 9.27959 192.546 9.27959C191.895 9.27959 191.185 9.38829 190.416 9.60571C189.666 9.80336 188.808 10.1196 187.841 10.5544L186.362 7.56005C187.565 7.00663 188.729 6.59157 189.854 6.31486C190.998 6.03816 192.122 5.8998 193.227 5.8998C195.298 5.8998 196.906 6.4038 198.05 7.41181C199.214 8.40005 199.796 9.80336 199.796 11.6217V21.6425H195.801V20.5752C195.15 21.0298 194.46 21.3658 193.73 21.5832C193.02 21.8006 192.221 21.9093 191.333 21.9093ZM189.587 17.0768C189.587 17.6698 189.844 18.1441 190.357 18.4999C190.869 18.8359 191.55 19.0039 192.398 19.0039C193.069 19.0039 193.681 18.9248 194.233 18.7667C194.805 18.5888 195.328 18.3418 195.801 18.0255V15.713C195.308 15.5154 194.785 15.377 194.233 15.298C193.7 15.1992 193.138 15.1497 192.546 15.1497C191.619 15.1497 190.889 15.3276 190.357 15.6834C189.844 16.0194 189.587 16.4839 189.587 17.0768Z" fill="#281D4C"/>
<path d="M219.079 13.9342C219.079 15.041 218.872 16.0787 218.458 17.0472C218.043 18.0156 217.481 18.8556 216.771 19.5672C216.061 20.2787 215.213 20.842 214.226 21.2571C213.26 21.6524 212.224 21.85 211.119 21.85C210.35 21.85 209.6 21.7413 208.871 21.5239C208.141 21.3065 207.47 21.0001 206.858 20.6048V21.6425H202.864V0.889417L206.918 0V7.41181C207.529 6.95722 208.2 6.61134 208.93 6.37416C209.679 6.11722 210.449 5.98874 211.238 5.98874C212.323 5.98874 213.339 6.19627 214.285 6.61134C215.252 7.0264 216.09 7.58969 216.801 8.30123C217.511 9.01276 218.063 9.85277 218.458 10.8212C218.872 11.7897 219.079 12.8274 219.079 13.9342ZM210.587 9.45747C209.857 9.45747 209.176 9.58594 208.545 9.84289C207.914 10.0801 207.371 10.4358 206.918 10.9102V16.9879C207.352 17.4227 207.884 17.7686 208.515 18.0255C209.166 18.2825 209.857 18.4109 210.587 18.4109C211.849 18.4109 212.914 17.986 213.782 17.1361C214.65 16.2665 215.084 15.1992 215.084 13.9342C215.084 12.6693 214.641 11.6118 213.753 10.762C212.885 9.8923 211.829 9.45747 210.587 9.45747Z" fill="#281D4C"/>
<path d="M4.7077 47.2044C3.93791 47.2044 3.2891 47.086 2.76125 46.8493C2.2444 46.6019 1.85401 46.3222 1.59009 46.0102C1.33716 45.6981 1.21069 45.4399 1.21069 45.2355C1.21069 45.1279 1.24918 45.0472 1.32616 44.9934C1.41414 44.9289 1.50211 44.8966 1.59009 44.8966H2.33237C2.44234 44.8966 2.54131 44.9504 2.62929 45.058C2.89321 45.3592 3.17913 45.5959 3.48704 45.7681C3.79496 45.9402 4.20734 46.0263 4.72419 46.0263C5.29603 46.0263 5.75789 45.9187 6.10979 45.7035C6.47269 45.4776 6.65414 45.171 6.65414 44.7836C6.65414 44.5254 6.57716 44.3156 6.4232 44.1542C6.28025 43.9821 6.02732 43.8368 5.66442 43.7185C5.31252 43.5894 4.78467 43.4495 4.08087 43.2989C3.12415 43.0945 2.44234 42.7986 2.03546 42.4113C1.63957 42.024 1.44163 41.5237 1.44163 40.9104C1.44163 40.5016 1.56259 40.1143 1.80452 39.7484C2.05745 39.3719 2.42035 39.0706 2.89321 38.8447C3.37707 38.608 3.95441 38.4897 4.62522 38.4897C5.32902 38.4897 5.92835 38.6026 6.4232 38.8286C6.91806 39.0545 7.28646 39.3235 7.52839 39.6355C7.78132 39.9367 7.90778 40.1896 7.90778 40.394C7.90778 40.4908 7.86929 40.5715 7.79231 40.6361C7.72633 40.7006 7.64386 40.7329 7.54488 40.7329H6.85208C6.72012 40.7329 6.61015 40.6791 6.52218 40.5715C6.34623 40.3671 6.19227 40.2111 6.06031 40.1035C5.93934 39.9851 5.75789 39.8829 5.51596 39.7969C5.28503 39.7108 4.98811 39.6678 4.62522 39.6678C4.09737 39.6678 3.69049 39.7807 3.40457 40.0067C3.11865 40.2218 2.97569 40.507 2.97569 40.862C2.97569 41.0879 3.03617 41.2816 3.15714 41.443C3.2781 41.5936 3.50904 41.7335 3.84994 41.8626C4.20184 41.9917 4.7077 42.1262 5.36751 42.266C6.41221 42.4812 7.149 42.7932 7.57788 43.2021C8.01775 43.6002 8.23769 44.1112 8.23769 44.7352C8.23769 45.1979 8.10023 45.6175 7.8253 45.994C7.55038 46.3706 7.1435 46.6664 6.60465 46.8816C6.0768 47.0968 5.44448 47.2044 4.7077 47.2044Z" fill="#281D4C"/>
<path d="M13.6608 47.2044C12.4511 47.2044 11.5109 46.8709 10.8401 46.2038C10.1803 45.5368 9.82837 44.6491 9.78438 43.541L9.76788 42.847L9.78438 42.1531C9.82837 41.0557 10.1858 40.1734 10.8566 39.5064C11.5274 38.8286 12.4621 38.4897 13.6608 38.4897C14.8594 38.4897 15.7942 38.8286 16.465 39.5064C17.1358 40.1734 17.4932 41.0557 17.5372 42.1531C17.5482 42.2714 17.5537 42.5027 17.5537 42.847C17.5537 43.1913 17.5482 43.4226 17.5372 43.541C17.4932 44.6491 17.1358 45.5368 16.465 46.2038C15.8052 46.8709 14.8704 47.2044 13.6608 47.2044ZM13.6608 45.9617C14.3536 45.9617 14.8979 45.7466 15.2938 45.3162C15.7007 44.8858 15.9206 44.2672 15.9536 43.4603C15.9646 43.3527 15.9701 43.1483 15.9701 42.847C15.9701 42.5458 15.9646 42.3414 15.9536 42.2338C15.9206 41.4268 15.7007 40.8082 15.2938 40.3778C14.8979 39.9475 14.3536 39.7323 13.6608 39.7323C12.968 39.7323 12.4181 39.9475 12.0112 40.3778C11.6044 40.8082 11.3899 41.4268 11.3679 42.2338L11.3514 42.847L11.3679 43.4603C11.3899 44.2672 11.6044 44.8858 12.0112 45.3162C12.4181 45.7466 12.968 45.9617 13.6608 45.9617Z" fill="#281D4C"/>
<path d="M20.7597 47.043C20.6497 47.043 20.5562 47.0107 20.4793 46.9462C20.4133 46.8709 20.3803 46.7794 20.3803 46.6718V39.9421H18.9782C18.8682 39.9421 18.7747 39.9098 18.6978 39.8453C18.6318 39.77 18.5988 39.6785 18.5988 39.5709V39.0222C18.5988 38.9146 18.6318 38.8286 18.6978 38.764C18.7747 38.6887 18.8682 38.651 18.9782 38.651H20.3803V37.8441C20.3803 36.0151 21.326 35.1006 23.2175 35.1006H24.2072C24.3172 35.1006 24.4051 35.1382 24.4711 35.2136C24.5481 35.2781 24.5866 35.3642 24.5866 35.4718V36.0205C24.5866 36.1281 24.5481 36.2195 24.4711 36.2948C24.4051 36.3594 24.3172 36.3917 24.2072 36.3917H23.2505C22.7556 36.3917 22.4092 36.5208 22.2113 36.779C22.0133 37.0264 21.9143 37.4084 21.9143 37.9248V38.651H24.0422C24.1522 38.651 24.2402 38.6887 24.3062 38.764C24.3831 38.8286 24.4216 38.9146 24.4216 39.0222V39.5709C24.4216 39.6785 24.3831 39.77 24.3062 39.8453C24.2402 39.9098 24.1522 39.9421 24.0422 39.9421H21.9143V46.6718C21.9143 46.7794 21.8759 46.8709 21.7989 46.9462C21.7329 47.0107 21.6449 47.043 21.535 47.043H20.7597Z" fill="#281D4C"/>
<path d="M29.2179 47.043C27.4804 47.043 26.6116 46.0962 26.6116 44.2027V39.9421H25.325C25.215 39.9421 25.1216 39.9098 25.0446 39.8453C24.9786 39.77 24.9456 39.6785 24.9456 39.5709V39.0222C24.9456 38.9146 24.9786 38.8286 25.0446 38.764C25.1216 38.6887 25.215 38.651 25.325 38.651H26.6116V35.9559C26.6116 35.8483 26.6446 35.7623 26.7106 35.6977C26.7876 35.6224 26.8811 35.5847 26.991 35.5847H27.7663C27.8763 35.5847 27.9643 35.6224 28.0302 35.6977C28.1072 35.7623 28.1457 35.8483 28.1457 35.9559V38.651H30.1911C30.3011 38.651 30.3891 38.6887 30.455 38.764C30.532 38.8286 30.5705 38.9146 30.5705 39.0222V39.5709C30.5705 39.6785 30.532 39.77 30.455 39.8453C30.3891 39.9098 30.3011 39.9421 30.1911 39.9421H28.1457V44.0897C28.1457 44.6276 28.2392 45.0365 28.4261 45.3162C28.6131 45.5852 28.921 45.7197 29.3499 45.7197H30.3561C30.466 45.7197 30.554 45.7573 30.62 45.8326C30.697 45.8972 30.7355 45.9833 30.7355 46.0908V46.6718C30.7355 46.7794 30.697 46.8709 30.62 46.9462C30.554 47.0107 30.466 47.043 30.3561 47.043H29.2179Z" fill="#281D4C"/>
<path d="M34.5892 47.043C34.4462 47.043 34.3362 47.0107 34.2593 46.9462C34.1823 46.8816 34.1163 46.7794 34.0613 46.6396L31.719 39.1513L31.686 38.9899C31.686 38.8931 31.719 38.8124 31.785 38.7479C31.8619 38.6833 31.9444 38.651 32.0324 38.651H32.7582C32.8682 38.651 32.9561 38.6833 33.0221 38.7479C33.0991 38.8017 33.1486 38.8608 33.1706 38.9254L35.0016 45.0096L36.9645 38.9899C36.9865 38.9039 37.036 38.8286 37.1129 38.764C37.1899 38.6887 37.2944 38.651 37.4264 38.651H37.9872C38.1192 38.651 38.2236 38.6887 38.3006 38.764C38.3776 38.8286 38.4271 38.9039 38.4491 38.9899L40.412 45.0096L42.243 38.9254C42.254 38.8716 42.2925 38.8124 42.3584 38.7479C42.4354 38.6833 42.5289 38.651 42.6389 38.651H43.3812C43.4691 38.651 43.5461 38.6833 43.6121 38.7479C43.6781 38.8124 43.7111 38.8931 43.7111 38.9899L43.6781 39.1513L41.3522 46.6396C41.2973 46.7794 41.2313 46.8816 41.1543 46.9462C41.0773 47.0107 40.9618 47.043 40.8079 47.043H40.1646C39.8677 47.043 39.6862 46.9085 39.6202 46.6396L37.7068 40.862L35.7933 46.6396C35.7054 46.9085 35.5184 47.043 35.2325 47.043H34.5892Z" fill="#281D4C"/>
<path d="M47.6882 47.2044C47.1494 47.2044 46.649 47.0968 46.1872 46.8816C45.7253 46.6664 45.3569 46.376 45.082 46.0102C44.8181 45.6336 44.6861 45.2194 44.6861 44.7675C44.6861 44.0574 44.983 43.4764 45.5768 43.0245C46.1817 42.5619 46.9954 42.2607 48.0181 42.1208L50.4759 41.7819V41.3139C50.4759 40.2165 49.8326 39.6678 48.546 39.6678C48.0621 39.6678 47.6662 39.77 47.3583 39.9744C47.0504 40.168 46.8195 40.3994 46.6655 40.6683C46.6325 40.7652 46.5885 40.8351 46.5336 40.8781C46.4896 40.9212 46.4236 40.9427 46.3356 40.9427H45.6263C45.5274 40.9427 45.4394 40.9104 45.3624 40.8459C45.2964 40.7705 45.2634 40.6845 45.2634 40.5876C45.2744 40.3294 45.3954 40.0389 45.6263 39.7162C45.8683 39.3826 46.2366 39.0975 46.7315 38.8608C47.2264 38.6134 47.8367 38.4897 48.5625 38.4897C49.7941 38.4897 50.6794 38.7748 51.2182 39.345C51.7571 39.9045 52.0265 40.6038 52.0265 41.443V46.6718C52.0265 46.7794 51.988 46.8709 51.911 46.9462C51.845 47.0107 51.7571 47.043 51.6471 47.043H50.8883C50.7784 47.043 50.6849 47.0107 50.6079 46.9462C50.5419 46.8709 50.5089 46.7794 50.5089 46.6718V45.9779C50.267 46.3222 49.9151 46.6127 49.4532 46.8493C48.9914 47.086 48.403 47.2044 47.6882 47.2044ZM48.0346 45.994C48.7494 45.994 49.3323 45.7681 49.7831 45.3162C50.245 44.8536 50.4759 44.1919 50.4759 43.3312V42.8793L48.5625 43.1537C47.7817 43.2612 47.1934 43.4441 46.7975 43.7024C46.4016 43.9498 46.2037 44.2672 46.2037 44.6545C46.2037 45.0849 46.3851 45.4184 46.748 45.6551C47.1109 45.881 47.5398 45.994 48.0346 45.994Z" fill="#281D4C"/>
<path d="M54.7772 47.043C54.6672 47.043 54.5738 47.0107 54.4968 46.9462C54.4308 46.8709 54.3978 46.7794 54.3978 46.6718V39.0384C54.3978 38.9308 54.4308 38.8393 54.4968 38.764C54.5738 38.6887 54.6672 38.651 54.7772 38.651H55.536C55.646 38.651 55.7394 38.6887 55.8164 38.764C55.8934 38.8393 55.9319 38.9308 55.9319 39.0384V39.7484C56.3828 39.0168 57.1525 38.651 58.2412 38.651H58.8845C58.9945 38.651 59.0825 38.6887 59.1485 38.764C59.2254 38.8286 59.2639 38.9146 59.2639 39.0222V39.6839C59.2639 39.7915 59.2254 39.8776 59.1485 39.9421C59.0825 40.0067 58.9945 40.0389 58.8845 40.0389H57.8948C57.301 40.0389 56.8336 40.2111 56.4927 40.5554C56.1518 40.8889 55.9814 41.3462 55.9814 41.9271V46.6718C55.9814 46.7794 55.9429 46.8709 55.8659 46.9462C55.7889 47.0107 55.6954 47.043 55.5855 47.043H54.7772Z" fill="#281D4C"/>
<path d="M63.934 47.2044C62.8014 47.2044 61.8941 46.8655 61.2123 46.1877C60.5415 45.4991 60.1731 44.5631 60.1071 43.3796L60.0906 42.8309L60.1071 42.2983C60.1841 41.1364 60.558 40.2111 61.2288 39.5225C61.9106 38.8339 62.8069 38.4897 63.9175 38.4897C65.1382 38.4897 66.0839 38.8716 66.7547 39.6355C67.4255 40.3886 67.7609 41.4107 67.7609 42.7018V42.9761C67.7609 43.0837 67.7225 43.1752 67.6455 43.2505C67.5795 43.315 67.4915 43.3473 67.3815 43.3473H61.6742V43.4926C61.7072 44.1919 61.9216 44.789 62.3175 45.2839C62.7244 45.7681 63.2577 46.0102 63.9175 46.0102C64.4234 46.0102 64.8358 45.9133 65.1547 45.7197C65.4846 45.5152 65.7265 45.3054 65.8805 45.0903C65.9794 44.9612 66.0509 44.8858 66.0949 44.8643C66.1499 44.832 66.2434 44.8159 66.3753 44.8159H67.1836C67.2826 44.8159 67.3651 44.8428 67.431 44.8966C67.497 44.9504 67.53 45.0257 67.53 45.1225C67.53 45.3592 67.3761 45.6444 67.0681 45.9779C66.7712 46.3114 66.3478 46.6019 65.798 46.8493C65.2591 47.086 64.6378 47.2044 63.934 47.2044ZM66.1939 42.2338V42.1853C66.1939 41.443 65.9849 40.8405 65.5671 40.3778C65.1602 39.9045 64.6103 39.6678 63.9175 39.6678C63.2247 39.6678 62.6749 39.9045 62.268 40.3778C61.8721 40.8405 61.6742 41.443 61.6742 42.1853V42.2338H66.1939Z" fill="#281D4C"/>
<path d="M74.156 47.043C74.046 47.043 73.9525 47.0107 73.8755 46.9462C73.8096 46.8709 73.7766 46.7794 73.7766 46.6718V39.0384C73.7766 38.9308 73.8096 38.8393 73.8755 38.764C73.9525 38.6887 74.046 38.651 74.156 38.651H74.9147C75.0247 38.651 75.1182 38.6887 75.1952 38.764C75.2721 38.8393 75.3106 38.9308 75.3106 39.0384V39.7484C75.7615 39.0168 76.5313 38.651 77.62 38.651H78.2633C78.3733 38.651 78.4612 38.6887 78.5272 38.764C78.6042 38.8286 78.6427 38.9146 78.6427 39.0222V39.6839C78.6427 39.7915 78.6042 39.8776 78.5272 39.9421C78.4612 40.0067 78.3733 40.0389 78.2633 40.0389H77.2736C76.6797 40.0389 76.2124 40.2111 75.8715 40.5554C75.5306 40.8889 75.3601 41.3462 75.3601 41.9271V46.6718C75.3601 46.7794 75.3216 46.8709 75.2446 46.9462C75.1677 47.0107 75.0742 47.043 74.9642 47.043H74.156Z" fill="#281D4C"/>
<path d="M83.5563 47.2044C82.8086 47.2044 82.1432 47.0699 81.5604 46.8009C80.9886 46.532 80.5432 46.1554 80.2243 45.6712C79.9054 45.1871 79.7459 44.6384 79.7459 44.0251C79.7459 43.3473 79.9494 42.7717 80.3563 42.2983C80.7631 41.8142 81.335 41.3623 82.0718 40.9427C81.5549 40.4047 81.1865 39.9367 80.9666 39.5386C80.7576 39.1298 80.6532 38.6995 80.6532 38.2476C80.6532 37.7634 80.7796 37.3223 81.0326 36.9242C81.2855 36.5154 81.6484 36.1926 82.1213 35.9559C82.5941 35.7085 83.133 35.5847 83.7378 35.5847C84.3316 35.5847 84.8595 35.7031 85.3213 35.9398C85.7832 36.1657 86.1406 36.4831 86.3935 36.8919C86.6465 37.29 86.7729 37.7365 86.7729 38.2314C86.7729 38.8877 86.5585 39.4364 86.1296 39.8776C85.7007 40.3187 85.0794 40.7652 84.2656 41.217L87.0698 43.9122C87.5097 43.1913 87.8066 42.3736 87.9606 41.4591C87.9716 41.3623 88.0046 41.287 88.0595 41.2332C88.1255 41.1686 88.208 41.1364 88.307 41.1364H89.0328C89.1318 41.1364 89.2142 41.1686 89.2802 41.2332C89.3462 41.2977 89.3792 41.3784 89.3792 41.4753C89.3682 41.9487 89.2417 42.492 88.9998 43.1052C88.7689 43.7077 88.45 44.2887 88.0431 44.8482L89.7256 46.4943C89.8245 46.5911 89.874 46.6718 89.874 46.7364C89.874 46.9408 89.7641 47.043 89.5441 47.043H88.6204C88.4115 47.043 88.263 46.9892 88.175 46.8816L87.0863 45.8326C86.1296 46.7471 84.9529 47.2044 83.5563 47.2044ZM83.3584 40.281C84.0182 39.926 84.5131 39.6032 84.843 39.3127C85.1729 39.0222 85.3378 38.6672 85.3378 38.2476C85.3378 37.828 85.1839 37.4891 84.876 37.2309C84.5681 36.9619 84.1887 36.8274 83.7378 36.8274C83.2979 36.8274 82.9185 36.9619 82.5996 37.2309C82.2917 37.4891 82.1377 37.8334 82.1377 38.2637C82.1377 38.5542 82.2202 38.8447 82.3852 39.1352C82.5611 39.4149 82.8855 39.7969 83.3584 40.281ZM83.5563 45.9133C84.0072 45.9133 84.4526 45.8219 84.8925 45.639C85.3323 45.4561 85.7337 45.1871 86.0966 44.832L83.012 41.8949C82.4512 42.2069 82.0168 42.5243 81.7089 42.847C81.4119 43.1698 81.2635 43.5517 81.2635 43.9929C81.2635 44.5846 81.4889 45.0526 81.9398 45.3969C82.3907 45.7412 82.9295 45.9133 83.5563 45.9133Z" fill="#281D4C"/>
<path d="M94.6302 47.2044C93.4865 47.2044 92.6233 46.8386 92.0405 46.107C91.4576 45.3754 91.1497 44.4501 91.1167 43.3312L91.1002 42.847L91.1167 42.3629C91.1497 41.2547 91.4576 40.3348 92.0405 39.6032C92.6233 38.8608 93.4865 38.4897 94.6302 38.4897C95.7629 38.4897 96.6536 38.8824 97.3025 39.6678V35.9559C97.3025 35.8483 97.3354 35.7623 97.4014 35.6977C97.4784 35.6224 97.5719 35.5847 97.6819 35.5847H98.4736C98.5836 35.5847 98.6716 35.6224 98.7375 35.6977C98.8145 35.7623 98.853 35.8483 98.853 35.9559V46.6718C98.853 46.7794 98.8145 46.8709 98.7375 46.9462C98.6716 47.0107 98.5836 47.043 98.4736 47.043H97.7313C97.6214 47.043 97.5279 47.0107 97.4509 46.9462C97.3849 46.8709 97.3519 46.7794 97.3519 46.6718V45.994C96.7141 46.8009 95.8069 47.2044 94.6302 47.2044ZM94.9766 45.8972C95.7354 45.8972 96.3017 45.6551 96.6756 45.171C97.0605 44.676 97.2695 44.0897 97.3025 43.4119C97.3135 43.2935 97.3189 43.0891 97.3189 42.7986C97.3189 42.4974 97.3135 42.2876 97.3025 42.1692C97.2805 41.5344 97.0715 40.9803 96.6756 40.507C96.2797 40.0336 95.7134 39.7969 94.9766 39.7969C94.1958 39.7969 93.624 40.0336 93.2611 40.507C92.9092 40.9803 92.7168 41.6044 92.6838 42.379L92.6673 42.847C92.6673 44.8805 93.4371 45.8972 94.9766 45.8972Z" fill="#281D4C"/>
<path d="M108.319 47.2044C107.549 47.2044 106.9 47.086 106.372 46.8493C105.855 46.6019 105.465 46.3222 105.201 46.0102C104.948 45.6981 104.822 45.4399 104.822 45.2355C104.822 45.1279 104.86 45.0472 104.937 44.9934C105.025 44.9289 105.113 44.8966 105.201 44.8966H105.943C106.053 44.8966 106.152 44.9504 106.24 45.058C106.504 45.3592 106.79 45.5959 107.098 45.7681C107.406 45.9402 107.818 46.0263 108.335 46.0263C108.907 46.0263 109.369 45.9187 109.721 45.7035C110.084 45.4776 110.265 45.171 110.265 44.7836C110.265 44.5254 110.188 44.3156 110.034 44.1542C109.891 43.9821 109.638 43.8368 109.275 43.7185C108.924 43.5894 108.396 43.4495 107.692 43.2989C106.735 43.0945 106.053 42.7986 105.647 42.4113C105.251 42.024 105.053 41.5237 105.053 40.9104C105.053 40.5016 105.174 40.1143 105.416 39.7484C105.668 39.3719 106.031 39.0706 106.504 38.8447C106.988 38.608 107.565 38.4897 108.236 38.4897C108.94 38.4897 109.539 38.6026 110.034 38.8286C110.529 39.0545 110.897 39.3235 111.139 39.6355C111.392 39.9367 111.519 40.1896 111.519 40.394C111.519 40.4908 111.48 40.5715 111.403 40.6361C111.337 40.7006 111.255 40.7329 111.156 40.7329H110.463C110.331 40.7329 110.221 40.6791 110.133 40.5715C109.957 40.3671 109.803 40.2111 109.671 40.1035C109.55 39.9851 109.369 39.8829 109.127 39.7969C108.896 39.7108 108.599 39.6678 108.236 39.6678C107.708 39.6678 107.302 39.7807 107.016 40.0067C106.73 40.2218 106.587 40.507 106.587 40.862C106.587 41.0879 106.647 41.2816 106.768 41.443C106.889 41.5936 107.12 41.7335 107.461 41.8626C107.813 41.9917 108.319 42.1262 108.979 42.266C110.023 42.4812 110.76 42.7932 111.189 43.2021C111.629 43.6002 111.849 44.1112 111.849 44.7352C111.849 45.1979 111.711 45.6175 111.436 45.994C111.161 46.3706 110.755 46.6664 110.216 46.8816C109.688 47.0968 109.056 47.2044 108.319 47.2044Z" fill="#281D4C"/>
<path d="M117.272 47.2044C116.062 47.2044 115.122 46.8709 114.451 46.2038C113.791 45.5368 113.439 44.6491 113.395 43.541L113.379 42.847L113.395 42.1531C113.439 41.0557 113.797 40.1734 114.468 39.5064C115.138 38.8286 116.073 38.4897 117.272 38.4897C118.47 38.4897 119.405 38.8286 120.076 39.5064C120.747 40.1734 121.104 41.0557 121.148 42.1531C121.159 42.2714 121.165 42.5027 121.165 42.847C121.165 43.1913 121.159 43.4226 121.148 43.541C121.104 44.6491 120.747 45.5368 120.076 46.2038C119.416 46.8709 118.481 47.2044 117.272 47.2044ZM117.272 45.9617C117.965 45.9617 118.509 45.7466 118.905 45.3162C119.312 44.8858 119.532 44.2672 119.565 43.4603C119.576 43.3527 119.581 43.1483 119.581 42.847C119.581 42.5458 119.576 42.3414 119.565 42.2338C119.532 41.4268 119.312 40.8082 118.905 40.3778C118.509 39.9475 117.965 39.7323 117.272 39.7323C116.579 39.7323 116.029 39.9475 115.622 40.3778C115.215 40.8082 115.001 41.4268 114.979 42.2338L114.962 42.847L114.979 43.4603C115.001 44.2672 115.215 44.8858 115.622 45.3162C116.029 45.7466 116.579 45.9617 117.272 45.9617Z" fill="#281D4C"/>
<path d="M123.626 47.043C123.516 47.043 123.423 47.0107 123.346 46.9462C123.28 46.8709 123.247 46.7794 123.247 46.6718V35.9559C123.247 35.8483 123.28 35.7623 123.346 35.6977C123.423 35.6224 123.516 35.5847 123.626 35.5847H124.401C124.511 35.5847 124.599 35.6224 124.665 35.6977C124.742 35.7623 124.781 35.8483 124.781 35.9559V46.6718C124.781 46.7794 124.742 46.8709 124.665 46.9462C124.599 47.0107 124.511 47.043 124.401 47.043H123.626Z" fill="#281D4C"/>
<path d="M130.441 47.2044C129.397 47.2044 128.588 46.8762 128.017 46.22C127.445 45.5529 127.159 44.6707 127.159 43.5733V39.0222C127.159 38.9146 127.192 38.8286 127.258 38.764C127.335 38.6887 127.428 38.651 127.538 38.651H128.363C128.473 38.651 128.561 38.6887 128.627 38.764C128.704 38.8286 128.742 38.9146 128.742 39.0222V43.4926C128.742 45.0956 129.457 45.8972 130.887 45.8972C131.58 45.8972 132.129 45.6874 132.536 45.2678C132.943 44.8374 133.147 44.2457 133.147 43.4926V39.0222C133.147 38.9146 133.18 38.8286 133.246 38.764C133.323 38.6887 133.416 38.651 133.526 38.651H134.351C134.461 38.651 134.549 38.6887 134.615 38.764C134.681 38.8286 134.714 38.9146 134.714 39.0222V46.6718C134.714 46.7794 134.681 46.8709 134.615 46.9462C134.549 47.0107 134.461 47.043 134.351 47.043H133.575C133.465 47.043 133.372 47.0107 133.295 46.9462C133.229 46.8709 133.196 46.7794 133.196 46.6718V45.9617C132.888 46.3706 132.514 46.6826 132.074 46.8978C131.635 47.1022 131.09 47.2044 130.441 47.2044Z" fill="#281D4C"/>
<path d="M140.513 47.043C138.775 47.043 137.907 46.0962 137.907 44.2027V39.9421H136.62C136.51 39.9421 136.416 39.9098 136.339 39.8453C136.273 39.77 136.24 39.6785 136.24 39.5709V39.0222C136.24 38.9146 136.273 38.8286 136.339 38.764C136.416 38.6887 136.51 38.651 136.62 38.651H137.907V35.9559C137.907 35.8483 137.94 35.7623 138.005 35.6977C138.082 35.6224 138.176 35.5847 138.286 35.5847H139.061C139.171 35.5847 139.259 35.6224 139.325 35.6977C139.402 35.7623 139.441 35.8483 139.441 35.9559V38.651H141.486C141.596 38.651 141.684 38.6887 141.75 38.764C141.827 38.8286 141.865 38.9146 141.865 39.0222V39.5709C141.865 39.6785 141.827 39.77 141.75 39.8453C141.684 39.9098 141.596 39.9421 141.486 39.9421H139.441V44.0897C139.441 44.6276 139.534 45.0365 139.721 45.3162C139.908 45.5852 140.216 45.7197 140.645 45.7197H141.651C141.761 45.7197 141.849 45.7573 141.915 45.8326C141.992 45.8972 142.03 45.9833 142.03 46.0908V46.6718C142.03 46.7794 141.992 46.8709 141.915 46.9462C141.849 47.0107 141.761 47.043 141.651 47.043H140.513Z" fill="#281D4C"/>
<path d="M143.855 37.0856C143.745 37.0856 143.652 37.0533 143.575 36.9888C143.509 36.9135 143.476 36.822 143.476 36.7144V35.843C143.476 35.7354 143.509 35.6439 143.575 35.5686C143.652 35.4933 143.745 35.4556 143.855 35.4556H144.894C145.004 35.4556 145.098 35.4933 145.175 35.5686C145.252 35.6439 145.29 35.7354 145.29 35.843V36.7144C145.29 36.822 145.252 36.9135 145.175 36.9888C145.098 37.0533 145.004 37.0856 144.894 37.0856H143.855ZM143.987 47.043C143.877 47.043 143.784 47.0107 143.707 46.9462C143.641 46.8709 143.608 46.7794 143.608 46.6718V39.0222C143.608 38.9146 143.641 38.8286 143.707 38.764C143.784 38.6887 143.877 38.651 143.987 38.651H144.779C144.889 38.651 144.977 38.6887 145.043 38.764C145.12 38.8286 145.158 38.9146 145.158 39.0222V46.6718C145.158 46.7794 145.12 46.8709 145.043 46.9462C144.977 47.0107 144.889 47.043 144.779 47.043H143.987Z" fill="#281D4C"/>
<path d="M151.116 47.2044C149.906 47.2044 148.966 46.8709 148.295 46.2038C147.636 45.5368 147.284 44.6491 147.24 43.541L147.223 42.847L147.24 42.1531C147.284 41.0557 147.641 40.1734 148.312 39.5064C148.983 38.8286 149.917 38.4897 151.116 38.4897C152.315 38.4897 153.25 38.8286 153.92 39.5064C154.591 40.1734 154.949 41.0557 154.993 42.1531C155.004 42.2714 155.009 42.5027 155.009 42.847C155.009 43.1913 155.004 43.4226 154.993 43.541C154.949 44.6491 154.591 45.5368 153.92 46.2038C153.261 46.8709 152.326 47.2044 151.116 47.2044ZM151.116 45.9617C151.809 45.9617 152.353 45.7466 152.749 45.3162C153.156 44.8858 153.376 44.2672 153.409 43.4603C153.42 43.3527 153.425 43.1483 153.425 42.847C153.425 42.5458 153.42 42.3414 153.409 42.2338C153.376 41.4268 153.156 40.8082 152.749 40.3778C152.353 39.9475 151.809 39.7323 151.116 39.7323C150.423 39.7323 149.874 39.9475 149.467 40.3778C149.06 40.8082 148.845 41.4268 148.823 42.2338L148.807 42.847L148.823 43.4603C148.845 44.2672 149.06 44.8858 149.467 45.3162C149.874 45.7466 150.423 45.9617 151.116 45.9617Z" fill="#281D4C"/>
<path d="M157.454 47.043C157.344 47.043 157.251 47.0107 157.174 46.9462C157.108 46.8709 157.075 46.7794 157.075 46.6718V39.0222C157.075 38.9146 157.108 38.8286 157.174 38.764C157.251 38.6887 157.344 38.651 157.454 38.651H158.229C158.339 38.651 158.427 38.6887 158.493 38.764C158.57 38.8286 158.609 38.9146 158.609 39.0222V39.7323C158.928 39.3342 159.301 39.0276 159.73 38.8124C160.17 38.5972 160.715 38.4897 161.363 38.4897C162.419 38.4897 163.238 38.8232 163.821 39.4902C164.415 40.1465 164.712 41.0234 164.712 42.1208V46.6718C164.712 46.7794 164.673 46.8709 164.596 46.9462C164.53 47.0107 164.442 47.043 164.332 47.043H163.508C163.398 47.043 163.304 47.0107 163.227 46.9462C163.161 46.8709 163.128 46.7794 163.128 46.6718V42.2015C163.128 41.4376 162.936 40.8459 162.551 40.4263C162.177 40.0067 161.633 39.7969 160.918 39.7969C160.225 39.7969 159.675 40.012 159.268 40.4424C158.862 40.862 158.658 41.4484 158.658 42.2015V46.6718C158.658 46.7794 158.62 46.8709 158.543 46.9462C158.477 47.0107 158.389 47.043 158.279 47.043H157.454Z" fill="#281D4C"/>
<path d="M169.555 47.2043C168.785 47.2043 168.136 47.086 167.608 46.8493C167.092 46.6018 166.701 46.3221 166.437 46.0101C166.184 45.6981 166.058 45.4399 166.058 45.2354C166.058 45.1279 166.096 45.0472 166.173 44.9934C166.261 44.9288 166.349 44.8965 166.437 44.8965H167.179C167.289 44.8965 167.388 44.9503 167.476 45.0579C167.74 45.3592 168.026 45.5959 168.334 45.768C168.642 45.9402 169.054 46.0262 169.571 46.0262C170.143 46.0262 170.605 45.9186 170.957 45.7035C171.32 45.4775 171.501 45.1709 171.501 44.7836C171.501 44.5254 171.424 44.3156 171.27 44.1542C171.127 43.982 170.874 43.8368 170.512 43.7184C170.16 43.5893 169.632 43.4495 168.928 43.2988C167.971 43.0944 167.289 42.7985 166.883 42.4112C166.487 42.0239 166.289 41.5236 166.289 40.9103C166.289 40.5015 166.41 40.1142 166.652 39.7484C166.905 39.3718 167.267 39.0706 167.74 38.8446C168.224 38.6079 168.802 38.4896 169.472 38.4896C170.176 38.4896 170.775 38.6026 171.27 38.8285C171.765 39.0544 172.134 39.3234 172.376 39.6354C172.628 39.9367 172.755 40.1895 172.755 40.3939C172.755 40.4907 172.716 40.5714 172.639 40.636C172.573 40.7005 172.491 40.7328 172.392 40.7328H171.699C171.567 40.7328 171.457 40.679 171.369 40.5714C171.193 40.367 171.039 40.211 170.907 40.1034C170.786 39.9851 170.605 39.8829 170.363 39.7968C170.132 39.7107 169.835 39.6677 169.472 39.6677C168.945 39.6677 168.538 39.7807 168.252 40.0066C167.966 40.2218 167.823 40.5069 167.823 40.8619C167.823 41.0879 167.883 41.2815 168.004 41.4429C168.125 41.5935 168.356 41.7334 168.697 41.8625C169.049 41.9916 169.555 42.1261 170.215 42.266C171.259 42.4812 171.996 42.7932 172.425 43.202C172.865 43.6001 173.085 44.1111 173.085 44.7352C173.085 45.1978 172.947 45.6174 172.672 45.9939C172.398 46.3705 171.991 46.6664 171.452 46.8816C170.924 47.0967 170.292 47.2043 169.555 47.2043Z" fill="#281D4C"/>
<path fill-rule="evenodd" clip-rule="evenodd" d="M177.926 35.7297C177.926 34.7137 178.738 33.8901 179.74 33.8901H195.497C196.498 33.8901 197.311 34.7137 197.311 35.7297V51.7073C197.311 52.7233 196.498 53.5468 195.497 53.5468H179.74C178.738 53.5468 177.926 52.7232 177.926 51.7073V35.7297ZM199.695 35.7297C199.695 34.7137 200.507 33.8901 201.509 33.8901H217.265C218.267 33.8901 219.079 34.7137 219.079 35.7297V51.7073C219.079 52.7233 218.267 53.5468 217.265 53.5468H201.509C200.507 53.5468 199.695 52.7232 199.695 51.7073V35.7297ZM201.509 55.3864C200.507 55.3864 199.695 56.21 199.695 57.2259V73.2036C199.695 74.2195 200.507 75.0431 201.509 75.0431H217.265C218.267 75.0431 219.079 74.2195 219.079 73.2036V57.2259C219.079 56.21 218.267 55.3864 217.265 55.3864H201.509Z" fill="#ED6165"/>
</svg>
