<svg width="110" height="115" viewBox="0 0 110 115" fill="none" xmlns="http://www.w3.org/2000/svg">
<g filter="url(#filter0_d_64_8552)">
<mask id="path-1-inside-1_64_8552" fill="white">
<path d="M84.6294 93.3229C85.1378 93.2344 85.5606 92.8816 85.7386 92.3972L101.487 49.5397L55.7525 57.5L39.716 101.14L84.6294 93.3229Z"/>
<path d="M10.3051 64.6775C10.1271 65.162 10.2208 65.7045 10.551 66.1012L39.716 101.14L55.7525 57.5L26.054 21.8201L10.3051 64.6775Z"/>
<path d="M101.487 49.5397L72.3241 14.5027C71.9931 14.105 71.4747 13.9145 70.9649 14.0032L26.054 21.8201L55.7525 57.5L101.487 49.5397Z"/>
</mask>
<path d="M84.6294 93.3229C85.1378 93.2344 85.5606 92.8816 85.7386 92.3972L101.487 49.5397L55.7525 57.5L39.716 101.14L84.6294 93.3229Z" fill="#FFD4C7"/>
<path d="M10.3051 64.6775C10.1271 65.162 10.2208 65.7045 10.551 66.1012L39.716 101.14L55.7525 57.5L26.054 21.8201L10.3051 64.6775Z" fill="#FFC0AB"/>
<path d="M101.487 49.5397L72.3241 14.5027C71.9931 14.105 71.4747 13.9145 70.9649 14.0032L26.054 21.8201L55.7525 57.5L101.487 49.5397Z" fill="#C8E4FF"/>
<path d="M55.2295 57.3078L39.193 100.948L40.239 101.332L56.2755 57.6922L55.2295 57.3078ZM101.392 48.9908L55.6569 56.9511L55.848 58.0489L101.583 50.0887L101.392 48.9908ZM25.6258 22.1765L55.3242 57.8565L56.1807 57.1435L26.4823 21.4636L25.6258 22.1765ZM101.487 49.5397L102.533 49.9241L102.755 49.3208L102.344 48.8268L101.487 49.5397ZM39.716 101.14L38.8595 101.853L39.2719 102.349L39.907 102.238L39.716 101.14ZM26.054 21.8201L25.8629 20.7222L25.2297 20.8324L25.008 21.4357L26.054 21.8201ZM10.551 66.1012L9.69448 66.8141L10.551 66.1012ZM72.3241 14.5027L71.4676 15.2156L72.3241 14.5027ZM84.6294 93.3229L84.4383 92.225L84.6294 93.3229ZM100.441 49.1553L84.6926 92.0128L86.7846 92.7815L102.533 49.9241L100.441 49.1553ZM84.4383 92.225L39.5249 100.042L39.907 102.238L84.8205 94.4208L84.4383 92.225ZM40.5725 100.427L11.4075 65.3883L9.69448 66.8141L38.8595 101.853L40.5725 100.427ZM11.3511 65.0619L27.1 22.2045L25.008 21.4357L9.25913 64.2932L11.3511 65.0619ZM71.4676 15.2156L100.631 50.2526L102.344 48.8268L73.1806 13.7898L71.4676 15.2156ZM26.2451 22.918L71.156 15.1011L70.7738 12.9054L25.8629 20.7222L26.2451 22.918ZM11.4075 65.3883C11.3318 65.2974 11.3103 65.173 11.3511 65.0619L9.25913 64.2932C8.94392 65.151 9.10983 66.1117 9.69448 66.8141L11.4075 65.3883ZM73.1806 13.7898C72.5944 13.0855 71.6766 12.7483 70.7738 12.9054L71.156 15.1011C71.2729 15.0808 71.3917 15.1244 71.4676 15.2156L73.1806 13.7898ZM84.6926 92.0128C84.6518 92.1239 84.5549 92.2047 84.4383 92.225L84.8205 94.4208C85.7208 94.2641 86.4694 93.6393 86.7846 92.7815L84.6926 92.0128Z" fill="#05023E" mask="url(#path-1-inside-1_64_8552)"/>
</g>
<path d="M27.1934 22.5209L71.0899 14.8867L99.718 49.2405L56.2032 56.8747L27.1934 22.5209Z" fill="white"/>
<defs>
<filter id="filter0_d_64_8552" x="0.0953486" y="9.64414" width="105.73" height="101.617" filterUnits="userSpaceOnUse" color-interpolation-filters="sRGB">
<feFlood flood-opacity="0" result="BackgroundImageFix"/>
<feColorMatrix in="SourceAlpha" type="matrix" values="0 0 0 0 0 0 0 0 0 0 0 0 0 0 0 0 0 0 127 0" result="hardAlpha"/>
<feOffset dx="-2.8917" dy="2.8917"/>
<feGaussianBlur stdDeviation="3.61463"/>
<feComposite in2="hardAlpha" operator="out"/>
<feColorMatrix type="matrix" values="0 0 0 0 0 0 0 0 0 0 0 0 0 0 0 0 0 0 0.25 0"/>
<feBlend mode="normal" in2="BackgroundImageFix" result="effect1_dropShadow_64_8552"/>
<feBlend mode="normal" in="SourceGraphic" in2="effect1_dropShadow_64_8552" result="shape"/>
</filter>
</defs>
</svg>
