<svg width="151" height="154" viewBox="0 0 151 154" fill="none" xmlns="http://www.w3.org/2000/svg">
<mask id="path-1-inside-1_64_8591" fill="white">
<path d="M104.178 112.496C104.687 112.407 105.109 112.055 105.287 111.57L121.036 68.7128L75.3013 76.6731L59.2648 120.313L104.178 112.496Z"/>
<path d="M29.854 83.8506C29.6759 84.3351 29.7696 84.8776 30.0998 85.2743L59.2648 120.313L75.3013 76.6731L45.6028 40.9932L29.854 83.8506Z"/>
<path d="M121.036 68.7128L91.8729 33.6758C91.5419 33.2781 91.0235 33.0876 90.5138 33.1763L45.6028 40.9932L75.3013 76.6731L121.036 68.7128Z"/>
</mask>
<path d="M104.178 112.496C104.687 112.407 105.109 112.055 105.287 111.57L121.036 68.7128L75.3013 76.6731L59.2648 120.313L104.178 112.496Z" fill="#C6CDFF"/>
<path d="M29.854 83.8506C29.6759 84.3351 29.7696 84.8776 30.0998 85.2743L59.2648 120.313L75.3013 76.6731L45.6028 40.9932L29.854 83.8506Z" fill="#B5BFFF"/>
<path d="M121.036 68.7128L91.8729 33.6758C91.5419 33.2781 91.0235 33.0876 90.5138 33.1763L45.6028 40.9932L75.3013 76.6731L121.036 68.7128Z" fill="#C8E4FF"/>
<path d="M74.7783 76.4809L58.7418 120.121L59.7878 120.505L75.8243 76.8653L74.7783 76.4809ZM120.941 68.1639L75.2058 76.1242L75.3968 77.222L121.132 69.2618L120.941 68.1639ZM45.1746 41.3496L74.8731 77.0296L75.7296 76.3166L46.0311 40.6367L45.1746 41.3496ZM121.036 68.7128L122.082 69.0972L122.304 68.4939L121.893 67.9999L121.036 68.7128ZM59.2648 120.313L58.4083 121.026L58.8207 121.522L59.4559 121.411L59.2648 120.313ZM45.6028 40.9932L45.4118 39.8953L44.7785 40.0055L44.5568 40.6088L45.6028 40.9932ZM30.0998 85.2743L29.2433 85.9872L30.0998 85.2743ZM91.8729 33.6758L92.7294 32.9629L91.8729 33.6758ZM90.5138 33.1763L90.3227 32.0785L90.5138 33.1763ZM104.178 112.496L103.987 111.398L104.178 112.496ZM119.99 68.3284L104.241 111.186L106.333 111.955L122.082 69.0972L119.99 68.3284ZM103.987 111.398L59.0737 119.215L59.4559 121.411L104.369 113.594L103.987 111.398ZM60.1213 119.6L30.9563 84.5614L29.2433 85.9872L58.4083 121.026L60.1213 119.6ZM30.8999 84.235L46.6488 41.3776L44.5568 40.6088L28.808 83.4663L30.8999 84.235ZM91.0164 34.3887L120.18 69.4257L121.893 67.9999L92.7294 32.9629L91.0164 34.3887ZM45.7939 42.0911L90.7048 34.2742L90.3227 32.0785L45.4118 39.8953L45.7939 42.0911ZM30.9563 84.5614C30.8806 84.4704 30.8591 84.3461 30.8999 84.235L28.808 83.4663C28.4927 84.324 28.6587 85.2848 29.2433 85.9872L30.9563 84.5614ZM92.7294 32.9629C92.1433 32.2586 91.2254 31.9213 90.3227 32.0785L90.7048 34.2742C90.8217 34.2539 90.9405 34.2975 91.0164 34.3887L92.7294 32.9629ZM104.241 111.186C104.201 111.297 104.104 111.378 103.987 111.398L104.369 113.594C105.27 113.437 106.018 112.812 106.333 111.955L104.241 111.186Z" fill="#05023E" mask="url(#path-1-inside-1_64_8591)"/>
<path d="M46.7422 41.694L90.6387 34.0598L119.267 68.4136L75.7521 76.0478L46.7422 41.694Z" fill="white"/>
<g filter="url(#filter0_d_64_8591)">
<mask id="path-4-inside-2_64_8591" fill="white">
<path d="M82.3977 122.135C82.8823 122.313 83.4248 122.219 83.8211 121.888L118.889 92.6469L75.301 76.6732L39.5929 106.448L82.3977 122.135Z"/>
<path d="M32.3537 60.1654C31.9573 60.496 31.7672 61.0127 31.8548 61.5213L39.5929 106.448L75.301 76.6732L67.4213 30.9242L32.3537 60.1654Z"/>
<path d="M118.889 92.6469L111.151 47.7223C111.063 47.2123 110.71 46.7882 110.224 46.6101L67.4213 30.9242L75.301 76.6732L118.889 92.6469Z"/>
</mask>
<path d="M82.3977 122.135C82.8823 122.313 83.4248 122.219 83.8211 121.888L118.889 92.6469L75.301 76.6732L39.5929 106.448L82.3977 122.135Z" fill="#C6CDFF"/>
<path d="M32.3537 60.1654C31.9573 60.496 31.7672 61.0127 31.8548 61.5213L39.5929 106.448L75.301 76.6732L67.4213 30.9242L32.3537 60.1654Z" fill="#B5BFFF"/>
<path d="M118.889 92.6469L111.151 47.7223C111.063 47.2123 110.71 46.7882 110.224 46.6101L67.4213 30.9242L75.301 76.6732L118.889 92.6469Z" fill="#C8E4FF"/>
<path d="M74.9442 76.2452L39.236 106.021L39.9497 106.876L75.6578 77.1011L74.9442 76.2452ZM119.081 92.1237L75.4927 76.15L75.1093 77.1964L118.697 93.17L119.081 92.1237ZM66.8722 31.0188L74.7519 76.7678L75.8501 76.5786L67.9704 30.8297L66.8722 31.0188ZM118.889 92.6469L119.602 93.5027L120.096 93.0911L119.987 92.4577L118.889 92.6469ZM39.5929 106.448L38.4947 106.638L38.6041 107.273L39.2094 107.495L39.5929 106.448ZM67.4213 30.9242L67.8048 29.8779L67.2013 29.6567L66.7077 30.0684L67.4213 30.9242ZM31.8548 61.5213L30.7565 61.7105L31.8548 61.5213ZM111.151 47.7223L112.249 47.5331L111.151 47.7223ZM110.224 46.6101L110.607 45.5638L110.224 46.6101ZM82.3977 122.135L82.7811 121.089L82.3977 122.135ZM118.175 91.791L83.1075 121.032L84.5348 122.744L119.602 93.5027L118.175 91.791ZM82.7811 121.089L39.9763 105.402L39.2094 107.495L82.0142 123.182L82.7811 121.089ZM40.6911 106.259L32.953 61.3321L30.7565 61.7105L38.4947 106.638L40.6911 106.259ZM33.0674 61.0213L68.135 31.7801L66.7077 30.0684L31.64 59.3096L33.0674 61.0213ZM110.053 47.9114L117.791 92.836L119.987 92.4577L112.249 47.5331L110.053 47.9114ZM67.0379 31.9706L109.84 47.6565L110.607 45.5638L67.8048 29.8779L67.0379 31.9706ZM32.953 61.3321C32.9329 61.2155 32.9765 61.0971 33.0674 61.0213L31.64 59.3096C30.9381 59.8948 30.6014 60.8098 30.7565 61.7105L32.953 61.3321ZM112.249 47.5331C112.094 46.6301 111.468 45.8791 110.607 45.5638L109.84 47.6565C109.952 47.6973 110.033 47.7945 110.053 47.9114L112.249 47.5331ZM83.1075 121.032C83.0166 121.108 82.8922 121.13 82.7811 121.089L82.0142 123.182C82.8723 123.496 83.8329 123.329 84.5348 122.744L83.1075 121.032Z" fill="#05023E" mask="url(#path-4-inside-2_64_8591)"/>
</g>
<path d="M68.0579 32.1002L109.89 47.437L117.506 91.5024L76.0043 76.3564L68.0579 32.1002Z" fill="white"/>
<defs>
<filter id="filter0_d_64_8591" x="21.7128" y="26.5868" width="101.514" height="105.758" filterUnits="userSpaceOnUse" color-interpolation-filters="sRGB">
<feFlood flood-opacity="0" result="BackgroundImageFix"/>
<feColorMatrix in="SourceAlpha" type="matrix" values="0 0 0 0 0 0 0 0 0 0 0 0 0 0 0 0 0 0 127 0" result="hardAlpha"/>
<feOffset dx="-2.8917" dy="2.8917"/>
<feGaussianBlur stdDeviation="3.61463"/>
<feComposite in2="hardAlpha" operator="out"/>
<feColorMatrix type="matrix" values="0 0 0 0 0 0 0 0 0 0 0 0 0 0 0 0 0 0 0.25 0"/>
<feBlend mode="normal" in2="BackgroundImageFix" result="effect1_dropShadow_64_8591"/>
<feBlend mode="normal" in="SourceGraphic" in2="effect1_dropShadow_64_8591" result="shape"/>
</filter>
</defs>
</svg>
